# xmcd
#
# Track frame offsets:
#	150
#	9809
#	20879
#	32062
#	41693
#	51998
#	64302
#	77354
#	88684
#	99586
#	111975
#	120986
#	131792
#	144416
#	156046
#	168605
#	180181
#	190695
#	201109
#	210404
#	222341
#	233648
#	244424
#	253797
#	265687
#
# Disc length: 3665 seconds
# Revision: 0
# Processed by: cddbd v1.5.2PL0 Copyright (c) Steve Scherf et al.
# Submitted via: dBpowerAMP V12.0
#
DISCID=580e4f19
DTITLE=Webb Pierce - Fallen Angel - Cross Country
DYEAR=2011
DGENRE=Country
TTITLE0=Fallen Angel
TTITLE1=A Rose And A Thorn
TTITLE2=Let Forgiveness In
TTITLE3=So Used To Loving You
TTITLE4=There's More Pretty Girls Than One
TTITLE5=Forgive Me
TTITLE6=Truck Driver's Blues
TTITLE7=Is My Ring On Your Finger
TTITLE8=My Rough And Rowdy Ways
TTITLE9=A Walk On The Wild Side Of Life
TTITLE10=No One But Me
TTITLE11=Last Night
TTITLE12=Heartaches By The Number
TTITLE13=You Are My Life
TTITLE14=Waterloo
TTITLE15=Cry Cry Darling
TTITLE16=Free Of The Blues
TTITLE17=I'm Letting You Go
TTITLE18=Take Time
TTITLE19=Someday You'll Call My Name
TTITLE20=Alla My Love
TTITLE21=Crazy Wild Desire
TTITLE22=I'm Fallin' In Love With You
TTITLE23=I Close My Eyes
TTITLE24=Drifting Texas Sand
EXTD=
EXTT0=
EXTT1=
EXTT2=
EXTT3=
EXTT4=
EXTT5=
EXTT6=
EXTT7=
EXTT8=
EXTT9=
EXTT10=
EXTT11=
EXTT12=
EXTT13=
EXTT14=
EXTT15=
EXTT16=
EXTT17=
EXTT18=
EXTT19=
EXTT20=
EXTT21=
EXTT22=
EXTT23=
EXTT24=
PLAYORDER=
